<svg width="40" height="40" viewBox="0 0 40 40" fill="none" xmlns="http://www.w3.org/2000/svg">
<g clip-path="url(#clip0_3_20)">
<path d="M26.8333 25.3333H25.5167L25.05 24.8833C26.6833 22.9833 27.6667 20.5167 27.6667 17.8333C27.6667 11.85 22.8167 7 16.8333 7C10.85 7 6 11.85 6 17.8333C6 23.8167 10.85 28.6667 16.8333 28.6667C19.5167 28.6667 21.9833 27.6833 23.8833 26.05L24.3333 26.5167V27.8333L32.6667 36.15L35.15 33.6667L26.8333 25.3333ZM16.8333 25.3333C12.6833 25.3333 9.33333 21.9833 9.33333 17.8333C9.33333 13.6833 12.6833 10.3333 16.8333 10.3333C20.9833 10.3333 24.3333 13.6833 24.3333 17.8333C24.3333 21.9833 20.9833 25.3333 16.8333 25.3333Z" fill="#D1D4DA"/>
</g>
<defs>
<clipPath id="clip0_3_20">
<rect width="40" height="40" fill="white"/>
</clipPath>
</defs>
</svg>
